<?xml version="1.0" encoding="UTF-8" standalone="no"?>
<!-- Created with Inkscape (http://www.inkscape.org/) -->

<svg
   width="24"
   height="24"
   viewBox="0 0 24 24"
   version="1.1"
   id="svg1"
   inkscape:version="1.4.3 (0d15f75, 2025-12-25)"
   xml:space="preserve"
   sodipodi:docname="dessin.svg"
   inkscape:export-filename="finalsvg.svg"
   inkscape:export-xdpi="96"
   inkscape:export-ydpi="96"
   xmlns:inkscape="http://www.inkscape.org/namespaces/inkscape"
   xmlns:sodipodi="http://sodipodi.sourceforge.net/DTD/sodipodi-0.dtd"
   xmlns="http://www.w3.org/2000/svg"
   xmlns:svg="http://www.w3.org/2000/svg"><sodipodi:namedview
     id="namedview1"
     pagecolor="#969696"
     bordercolor="#eeeeee"
     borderopacity="1"
     inkscape:showpageshadow="false"
     inkscape:pageopacity="0"
     inkscape:pagecheckerboard="false"
     inkscape:deskcolor="#505050"
     inkscape:document-units="px"
     showgrid="true"
     showborder="true"
     borderlayer="true"
     labelstyle="default"
     inkscape:clip-to-page="false"
     inkscape:antialias-rendering="true"
     inkscape:lockguides="false"
     showguides="true"
     inkscape:zoom="32"
     inkscape:cx="11.046875"
     inkscape:cy="10.15625"
     inkscape:window-width="2560"
     inkscape:window-height="1494"
     inkscape:window-x="-11"
     inkscape:window-y="-11"
     inkscape:window-maximized="1"
     inkscape:current-layer="layer2"><inkscape:grid
       id="grid2"
       units="px"
       originx="0"
       originy="0"
       spacingx="1"
       spacingy="1"
       empcolor="#000000"
       empopacity="0.83529412"
       color="#7a7a7a"
       opacity="0.89411765"
       empspacing="5"
       enabled="true"
       visible="true" /><inkscape:page
       x="0"
       y="0"
       width="24"
       height="24"
       id="page2"
       margin="0"
       bleed="0" /></sodipodi:namedview><defs
     id="defs1"><inkscape:path-effect
       effect="fillet_chamfer"
       id="path-effect49"
       is_visible="true"
       lpeversion="1"
       nodesatellites_param="F,0,0,1,0,0.1,0,1 @ F,0,0,1,0,0.1,0,1 @ F,0,0,1,0,0.1,0,1 @ F,0,0,1,0,0.1,0,1 | F,0,0,1,0,0.1,0,1 @ F,0,0,1,0,0.1,0,1 @ F,0,0,1,0,0.1,0,1 @ F,0,0,1,0,0.1,0,1 | F,0,0,1,0,0.1,0,1 @ F,0,0,1,0,0.1,0,1 @ F,0,0,1,0,0.1,0,1 @ F,0,0,1,0,0.1,0,1 | F,0,0,1,0,0.1,0,1 @ F,0,0,1,0,0.1,0,1 @ F,0,0,1,0,0.1,0,1 @ F,0,0,1,0,0.1,0,1 | F,0,0,1,0,0.1,0,1 @ F,0,0,1,0,0.1,0,1 @ F,0,0,1,0,0.1,0,1 @ F,0,0,1,0,0.1,0,1 | F,0,0,1,0,0.1,0,1 @ F,0,0,1,0,0.1,0,1 @ F,0,0,1,0,0.1,0,1 @ F,0,0,1,0,0.1,0,1 | F,0,0,1,0,0.1,0,1 @ F,0,0,1,0,0.1,0,1 @ F,0,0,1,0,0.1,0,1 @ F,0,0,1,0,0.1,0,1 | F,0,0,1,0,0.1,0,1 @ F,0,0,1,0,0.1,0,1 @ F,0,0,1,0,0.1,0,1 @ F,0,0,1,0,0.1,0,1"
       radius="0.1"
       unit="px"
       method="auto"
       mode="F"
       chamfer_steps="1"
       flexible="false"
       use_knot_distance="true"
       apply_no_radius="true"
       apply_with_radius="true"
       only_selected="false"
       hide_knots="false" /><inkscape:path-effect
       effect="fillet_chamfer"
       id="path-effect15"
       is_visible="true"
       lpeversion="1"
       nodesatellites_param="F,0,0,1,0,1.5,0,1 @ F,0,0,1,0,1.5,0,1 @ F,0,0,1,0,1.5,0,1 @ F,0,0,1,0,1.5,0,1"
       radius="1.5"
       unit="px"
       method="auto"
       mode="F"
       chamfer_steps="1"
       flexible="false"
       use_knot_distance="true"
       apply_no_radius="true"
       apply_with_radius="true"
       only_selected="false"
       hide_knots="false" /></defs><g
     inkscape:groupmode="layer"
     id="layer2"
     inkscape:label="fini"
     style="display:inline"><rect
       style="display:inline;opacity:1;fill:#4880cb;stroke:#000000;stroke-width:0;stroke-linecap:round;stroke-linejoin:round;stroke-dasharray:none;stroke-opacity:1"
       id="outline"
       width="22"
       height="21.999636"
       x="1"
       y="1"
       rx="5" /><path
       id="path13"
       style="display:inline;opacity:1;fill:#fffdfa;stroke:#000000;stroke-width:0;stroke-linecap:round;stroke-linejoin:round"
       transform="translate(0,-0.03938084)"
       d="M 5.1999999,5.7393808 H 18.868267 c 0.6094,0 1.1,0.4906 1.1,1.1000001 V 7.927683 c 0,0.6094 -0.4906,1.1 -1.1,1.1 H 5.1999999 c -0.6094,0 -1.1,-0.4906 -1.1,-1.1 V 6.8393809 c 0,-0.6094001 0.4906,-1.1000001 1.1,-1.1000001 z m 0.5790962,-1.4 h 3.3209038 v 3.3615754 h -5 V 6.018477 A 1.6790962,1.6790962 0 0 1 5.7790961,4.3393808 Z m 3.3209039,0 c 0,0 0.3661082,0.00274 0.5207072,0.042966 0.1545989,0.040227 0.2270203,0.1336826 0.3623669,0.261719 0.4039739,0.3821551 0.7792029,0.7946559 1.1697139,1.1914087 L 9.1,5.8393808 Z" /><path
       id="light_blue_file__trapeze_"
       style="display:inline;opacity:1;fill:#579be8;stroke:#000000;stroke-width:0;stroke-linecap:round;stroke-linejoin:round"
       d="M 4.9000001,7.5 H 19.1 a 1.4025454,1.4025454 46.923015 0 1 1.399387,1.4966219 L 19.900613,17.903378 A 1.6042261,1.6042261 136.92302 0 1 18.3,19.4 H 5.7 A 1.6042261,1.6042261 43.076985 0 1 4.0993868,17.903378 L 3.5006133,8.9966219 A 1.4025454,1.4025454 133.07699 0 1 4.9000001,7.5 Z"
       sodipodi:nodetypes="ccccc"
       inkscape:path-effect="#path-effect15"
       inkscape:original-d="M 3.4000001,7.5 H 20.6 L 19.8,19.4 H 4.2 Z"><desc
         id="desc15"></desc></path><g
       inkscape:groupmode="layer"
       id="g34"
       inkscape:label="engrenage"><path
         id="path26"
         style="opacity:1;fill:#fffdfa;stroke:#000000;stroke-width:0;stroke-linejoin:bevel;paint-order:markers fill stroke"
         d="M 12,10.2 A 3.25,3.25 0 0 0 8.75,13.45 3.25,3.25 0 0 0 12,16.7 3.25,3.25 0 0 0 15.25,13.45 3.25,3.25 0 0 0 12,10.2 Z m 0,1.5 A 1.75,1.75 0 0 1 13.75,13.45 1.75,1.75 0 0 1 12,15.2 1.75,1.75 0 0 1 10.25,13.45 1.75,1.75 0 0 1 12,11.7 Z" /><path
         id="path34"
         style="opacity:1;fill:#fffdfa;stroke:#000000;stroke-width:0;stroke-linejoin:bevel;paint-order:markers fill stroke"
         transform="matrix(-0.71646322,-0.71646322,-0.69818164,0.69818164,30.081487,12.662249)"
         d="m 11.499091,9.2034369 h 1.13898 a 0.12189371,0.12189371 39.365005 0 1 0.119543,0.098072 l 0.203101,1.0191964 a 0.08203869,0.08203869 129.36501 0 1 -0.08046,0.09807 h -1.611636 a 0.08281883,0.08281883 50.368845 0 1 -0.08137,-0.09825 L 11.38046,9.3016859 a 0.12074549,0.12074549 140.36884 0 1 0.118631,-0.098249 z m -10e-7,8.6086591 h 1.13898 a 0.12189371,0.12189371 140.635 0 0 0.119543,-0.09807 l 0.203101,-1.019196 a 0.08203869,0.08203869 50.634995 0 0 -0.08046,-0.09807 h -1.611636 a 0.08281882,0.08281882 129.63115 0 0 -0.08137,0.09825 l 0.193207,1.018842 a 0.1207455,0.1207455 39.631155 0 0 0.118631,0.09825 z m 4.764231,-4.891598 v 1.17404 a 0.12316288,0.12316288 129.07428 0 1 -0.09787,0.120537 L 15.17686,14.42253 a 0.08119329,0.08119329 39.074283 0 1 -0.09787,-0.07946 v -1.659073 a 0.08200495,0.08200495 140.64655 0 1 0.09806,-0.08042 l 0.988201,0.197338 a 0.12194385,0.12194385 50.646551 0 1 0.09806,0.119583 z m -8.3889968,-1e-6 v 1.17404 a 0.12316288,0.12316288 50.925717 0 0 0.097868,0.120537 l 0.9885924,0.207455 a 0.08119329,0.08119329 140.92572 0 0 0.097868,-0.07946 l 0,-1.659073 a 0.08200495,0.08200495 39.353449 0 0 -0.098064,-0.08042 L 7.972388,12.800914 a 0.12194385,0.12194385 129.35345 0 0 -0.098064,0.119583 z m 7.5679338,3.218107 -0.80722,0.828356 a 0.11945538,0.11945538 174.19339 0 1 -0.15257,0.01552 l -0.843141,-0.571433 a 0.08371325,0.08371325 84.193398 0 1 -0.01299,-0.127721 l 1.141438,-1.171327 a 0.08035107,0.08035107 5.4773527 0 1 0.1247,0.01196 l 0.564663,0.859456 a 0.12445388,0.12445388 95.477347 0 1 -0.01488,0.155195 z M 9.5103419,10.051362 8.7031221,10.879718 a 0.12566132,0.12566132 95.747181 0 0 -0.015671,0.155709 l 0.5579554,0.866931 a 0.07957899,0.07957899 5.7471812 0 0 0.1239108,0.01247 l 1.1414379,-1.171325 a 0.08453355,0.08453355 84.468621 0 0 -0.01245,-0.128515 l -0.8359395,-0.57835 a 0.11829623,0.11829623 174.46862 0 0 -0.1520276,0.01472 z m -8e-7,6.923534 L 8.7031212,16.14654 A 0.12566134,0.12566134 84.252825 0 1 8.68745,15.990831 L 9.2454054,15.1239 a 0.07957898,0.07957898 174.25282 0 1 0.1239108,-0.01247 l 1.1414378,1.171325 a 0.08453359,0.08453359 95.531368 0 1 -0.01245,0.128515 l -0.8359393,0.57835 a 0.11829616,0.11829616 5.5313722 0 1 -0.1520276,-0.01472 z m 5.9319179,-6.08724 -0.80722,-0.828357 a 0.1194554,0.1194554 5.8065915 0 0 -0.15257,-0.01551 l -0.843141,0.571433 a 0.08371327,0.08371327 95.806596 0 0 -0.01299,0.127721 l 1.141438,1.171327 a 0.08035103,0.08035103 174.52263 0 0 0.1247,-0.01196 l 0.564663,-0.859457 a 0.12445389,0.12445389 84.52263 0 0 -0.01488,-0.155194 z"
         inkscape:original-d="m 11.399091,9.2034369 h 1.33898 l 0.242187,1.2153401 h -1.811636 z m -1e-6,8.6086591 h 1.33898 l 0.242187,-1.21534 h -1.811636 z m 4.864231,-4.991598 v 1.37404 l -1.184329,0.248529 v -1.859073 z m -8.3889968,-1e-6 v 1.37404 l 1.184329,0.248529 v -1.859073 z m 7.6377248,3.246488 -0.946802,0.971594 -1.008699,-0.683639 1.28102,-1.314563 z M 9.5801329,9.9797435 8.6333311,10.951337 l 0.666195,1.035111 1.2810199,-1.314563 z m -8e-7,7.0667715 -0.9468019,-0.971594 0.666195,-1.035111 1.2810198,1.314563 z M 15.51205,10.959274 14.565248,9.9876807 13.556549,10.67132 l 1.28102,1.314563 z"
         inkscape:path-effect="#path-effect49" /></g></g></svg>
