<?xml version="1.0" encoding="UTF-8" standalone="no"?>
<!-- Created with Inkscape (http://www.inkscape.org/) -->

<svg
   version="1.1"
   id="svg1"
   width="600"
   height="600"
   viewBox="0 0 600 600"
   xmlns="http://www.w3.org/2000/svg"
   xmlns:svg="http://www.w3.org/2000/svg">
  <defs
     id="defs1" />
  <g
     id="g1"
     transform="translate(-212,-225)">
    <path
       style="display:inline;fill:#d4aa00;fill-opacity:1;stroke-width:1.01015"
       d="m 512.03923,826.02267 h -37.99312 l -1.4446,-2.29592 -1.44459,-2.29593 -3.61734,-15.81639 -3.61734,-15.81638 -3.21133,-13.66181 -3.21134,-13.66182 -11.66622,-3.3823 -11.66623,-3.3823 -8.83603,-3.48214 -8.83604,-3.48214 -9.49752,-4.84205 -9.49753,-4.84206 -8.29036,-5.08232 -8.29036,-5.08231 -1.20964,0.47906 -1.20964,0.47907 -24.5,16.10207 -24.5,16.10207 -1.82443,0.4879 -1.82444,0.4879 L 299.80057,736.50874 273.75,709.9826 v -2.51309 -2.51308 l 14.75675,-23.90598 14.75676,-23.90597 0.93763,-2.09184 0.93764,-2.09185 -4.58242,-7.90905 -4.58242,-7.90904 -3.36662,-6.83591 -3.36661,-6.8359 -3.49975,-8.6735 -3.49974,-8.67351 -3.14757,-9.69391 -3.14756,-9.69391 -0.6044,-3.84916 -0.60439,-3.84917 -0.80897,-0.51016 -0.80896,-0.51018 -16.80969,-3.48685 -16.80968,-3.48685 -11.73302,-2.61304 -11.73301,-2.61304 h -0.44556 -0.44555 L 213.57143,564.2141 212,562.6106 v -37.14863 -37.14862 l 2.25,-1.47506 2.25,-1.47506 28.77446,-5.94646 28.77446,-5.94645 1.00935,-4.08164 1.00934,-4.08165 2.55804,-8.6735 2.55803,-8.67351 5.03266,-12.5386 5.03266,-12.5386 6.8755,-12.24591 6.8755,-12.2459 v -0.65106 -0.65107 l -6.89218,-11.29925 -6.89217,-11.29927 -8.72881,-14.28577 -8.7288,-14.28577 -0.004,-2.41574 -0.004,-2.41574 24.375,-24.94804 24.375,-24.94803 2.5,-1.32285 2.5,-1.32286 1.5,0.52906 1.5,0.52906 15,9.89675 15,9.89677 10.10847,6.65726 10.10846,6.65725 6.89154,-4.58627 6.89153,-4.58626 13.84187,-6.95192 13.84188,-6.95194 12.15812,-4.03894 12.15813,-4.03895 5.65679,-1.27683 5.6568,-1.27683 0.48375,-2.66504 0.48376,-2.66504 6.55438,-28.03393 6.55439,-28.03393 1.74619,-1.30292 L 475.3823,225 h 36.08636 36.08637 l 2.1393,1.52902 2.13931,1.529 1.02753,4.889 1.02752,4.889 6.08368,25.49287 6.08369,25.49286 9.22199,2.38214 9.22199,2.38213 9.5,3.55556 9.5,3.55555 12,5.94902 12,5.94904 7.88985,5.01653 7.88985,5.01652 25.9707,-17.18135 25.97067,-17.18135 0.63944,0.0361 0.63945,0.0361 2,1.25912 2,1.2591 24.75,25.517 L 750,341.89 v 1.76173 1.76173 l -15.91914,26.27315 -15.91915,26.27315 2.10272,3.57145 2.10271,3.57144 5.29211,9.64886 5.2921,9.64885 5.03473,12.49509 5.03474,12.49508 3.37546,11.9826 3.37547,11.98259 29.80135,6.32853 29.80135,6.32851 1.31278,1.83196 L 812,489.6767 V 526.05835 562.44 l -1.75,1.60711 -1.75,1.60711 -24.5,5.12224 -24.5,5.12224 -5.00384,1.11257 -5.00384,1.11258 -2.74235,10.68063 -2.74235,10.68062 -3.61357,9.44184 -3.61357,9.44182 -4.75844,9.74606 -4.75843,9.74608 -4.26602,7.09072 -4.26602,7.09073 -0.0325,1.12347 -0.0325,1.12345 15.66666,25.54268 L 750,705.37471 v 2.44171 2.44171 l -25.79424,26.2495 -25.79423,26.2495 h -1.97941 -1.9794 l -25.27189,-16.8368 -25.27189,-16.8368 h -0.61753 -0.61754 l -9.08693,5.5008 -9.08694,5.50078 -7.43431,3.79047 -7.43432,3.79045 -11.06568,4.41379 -11.06569,4.41379 -10.57928,2.70385 -10.57928,2.70384 -6.73682,28.74434 -6.73682,28.74435 -1.41772,3.31634 -1.41772,3.31634 z M 518,705.98438 l 13.5,-0.5005 11.43069,-1.98991 11.43068,-1.98993 12.06932,-4.11433 12.06931,-4.11433 10.5,-5.11309 10.5,-5.11309 11,-7.52904 11,-7.52906 8.19482,-7.18735 8.19482,-7.18734 7.65577,-8.93559 7.65576,-8.93559 6.95913,-10.6196 6.95913,-10.6196 4.85596,-10.31355 4.85596,-10.31354 3.54368,-10.8607 3.54367,-10.86071 2.01242,-10.07668 2.01242,-10.07668 1.13432,-12.68401 1.13432,-12.684 -1.1387,-14.33798 -1.1387,-14.33797 -2.556,-11.6545 -2.556,-11.6545 -3.01284,-8.75374 -3.01284,-8.75374 -3.40417,-7.5541 -3.40417,-7.5541 -5.15808,-8.77249 -5.15808,-8.77249 -5.47723,-7.58258 -5.47723,-7.58258 -8.60907,-9.12978 -8.60907,-9.12979 -8,-6.37218 -8,-6.37218 -8.75233,-5.80795 -8.75234,-5.80794 -9.24766,-4.44522 -9.24767,-4.44522 -10.09183,-3.56167 -10.09183,-3.56167 -9.40817,-2.07026 -9.40817,-2.07026 -11,-1.21321 -11,-1.21321 -14,0.60422 -14,0.60423 -8,1.47853 -8,1.47853 -8.5,2.2159 -8.5,2.21588 -8.51331,3.3533 -8.51331,3.3533 -8.27001,4.24296 -8.27001,4.24295 -7.21668,4.70043 -7.21668,4.70042 -8,6.38651 -8,6.3865 -9.60107,10.05813 -9.60107,10.05814 -6.08683,8.42131 -6.08684,8.42129 -5.01522,9.07826 -5.01523,9.07826 -3.98653,9.54136 -3.98654,9.54136 -2.49992,8.83001 -2.49992,8.83001 -1.52585,7.53793 -1.52586,7.53791 -1.02635,9.14237 -1.02636,9.14237 -0.008,9.18996 -0.008,9.18996 1.4874,12.7489 1.48739,12.74889 2.03294,8.56992 2.03294,8.56992 3.11715,9.28729 3.11716,9.28729 4.90295,10.18148 4.90295,10.18147 7.39881,11.33689 7.39881,11.33688 9.74294,10.45588 9.74294,10.45589 7.06781,5.89293 7.06781,5.89294 8.88047,5.90651 8.88047,5.90651 9.51437,4.94294 9.51438,4.94294 13.60515,4.52792 13.60516,4.52792 8.94843,1.70229 8.94842,1.70228 8.55158,0.84593 8.55157,0.84594 z m -2.5,-29.47641 -13,0.4159 -7.5,-0.93749 -7.5,-0.93749 -7.5,-1.67904 -7.5,-1.67902 -10,-3.54204 -10,-3.54203 -9.87526,-5.16694 -9.87526,-5.16694 -8.12474,-6.11888 -8.12474,-6.11888 -8.88882,-8.77191 -8.88881,-8.77191 -7.18014,-9.77359 -7.18013,-9.77358 -5.17862,-10.28748 -5.17861,-10.28749 -3.44006,-10.5513 -3.44006,-10.55128 -1.81238,-8.6735 -1.81237,-8.6735 V 525.51134 505.1031 l 1.81237,-8.67351 1.81238,-8.6735 3.37449,-10.35133 3.37449,-10.35135 4.69339,-9.54669 4.69338,-9.5467 3.02415,-4.59185 3.02415,-4.59185 7.39918,-9.38451 7.39917,-9.3845 8.19643,-7.33688 8.19642,-7.33688 9.69764,-6.53424 9.69764,-6.53423 8.41537,-3.96727 8.41537,-3.96727 9.88699,-3.08927 9.88699,-3.08925 8.5,-1.6211 8.5,-1.6211 11.5,-0.605 11.5,-0.60501 10.5,1.21634 10.5,1.21635 8.08392,1.92568 8.08392,1.92568 8.41608,2.97926 8.41608,2.97925 10.02011,5.13501 10.02011,5.13501 8.47989,6.3903 8.47989,6.39031 8.3382,8.25898 8.33821,8.25898 6.80434,9.18371 6.80434,9.18371 4.58831,8.16329 4.58832,8.1633 3.93029,10.71432 3.9303,10.71433 2.76221,12.24494 2.76221,12.24495 0.0656,18.36741 0.0656,18.36742 -1.36192,7.65309 -1.36192,7.65309 -2.89188,9.96779 -2.89189,9.96781 -3.86909,9.15762 -3.86909,9.15763 -7.8117,11.99714 -7.81169,11.99714 -10.05434,10.28052 -10.05434,10.28052 -8.7551,6.62409 -8.75509,6.62408 -11.28079,5.77051 -11.28078,5.77051 -10.46412,3.48798 -10.46412,3.48796 -9.5,1.67812 -9.5,1.67813 z m -0.5,-33.63884 12.5,-0.39438 7.2253,-1.57441 7.22529,-1.57439 6.27471,-2.13786 6.2747,-2.13785 9.08832,-4.58154 9.08833,-4.58155 8.55729,-6.55344 8.55729,-6.55345 6.73406,-7.40984 6.73405,-7.40983 5.01052,-7.5639 5.01052,-7.5639 3.25504,-7.23207 3.25504,-7.23208 2.51696,-8.18744 2.51696,-8.18743 1.2119,-8.45741 1.2119,-8.4574 -0.50747,-14.47772 -0.50747,-14.47773 -2.59404,-10.08989 -2.59404,-10.08988 -5.35966,-11.33877 -5.35967,-11.33877 -6.1228,-8.26311 -6.1228,-8.2631 -6.46664,-6.17271 -6.46665,-6.17271 -6.47953,-4.71807 -6.47954,-4.71809 -8.84394,-4.46376 -8.84393,-4.46376 -8.49584,-2.72056 -8.49585,-2.72056 -9.50415,-1.46199 -9.50416,-1.462 -6.52623,-0.006 -6.52624,-0.006 -8.21619,1.05125 -8.2162,1.05126 -8.75757,2.54996 -8.75757,2.54997 -9.2202,4.5034 -9.22021,4.50342 -6.20254,4.29805 -6.20255,4.29804 -7.9884,7.75046 -7.9884,7.75047 -5.91078,8.09554 -5.91077,8.09554 -4.88969,10.27188 -4.88968,10.27187 -2.58135,10.20412 -2.58135,10.20412 -0.98536,10.54618 -0.98536,10.54618 1.01184,10.06141 1.01184,10.06142 1.04826,4.9027 1.04827,4.90271 2.10935,6.63268 2.10936,6.63268 3.99371,8.16329 3.99371,8.1633 3.83789,5.77042 3.83789,5.77041 5.27726,6.13759 5.27726,6.1376 7.20844,6.13353 7.20843,6.13355 6.80725,4.12665 6.80725,4.12666 7.98432,3.5272 7.98431,3.52719 8.02015,2.11822 8.02016,2.11823 5.97984,0.96031 5.97985,0.9603 z"
       id="path1" />
    <path
       style="display:inline;fill:#666666;fill-opacity:1;stroke-width:0.418785"
       d="m 472.74613,823.494 c -1.28724,-2.1283 -1.8534,-4.11112 -4.50006,-15.76025 -5.1068,-22.47728 -10.45727,-45.03912 -10.74848,-45.32404 -0.15209,-0.14882 -5.31362,-1.72628 -11.47006,-3.50554 -20.19147,-5.83533 -37.96027,-13.67662 -56.01456,-24.71895 -8.8312,-5.40129 -9.19808,-5.58041 -10.35831,-5.0561 -0.66156,0.29892 -12.2098,7.76146 -25.66276,16.5834 -13.45295,8.82193 -25.20615,16.2711 -26.11822,16.5537 l -1.6583,0.51382 -26.23224,-26.48971 -26.23225,-26.4897 0.0104,-2.20025 c 0.0102,-2.15585 0.30468,-2.67728 14.57432,-25.80527 8.01016,-12.98275 15.1313,-24.77797 15.82476,-26.2116 l 1.26083,-2.60662 -4.59221,-7.96933 c -8.88751,-15.42335 -15.36024,-29.99024 -21.30473,-47.94634 -2.68928,-8.12329 -4.49383,-15.28201 -4.50719,-17.88016 -0.004,-0.82088 -3.89045,-1.82697 -19.90127,-5.15215 -9.46267,-1.96524 -21.95686,-4.6305 -27.76486,-5.9228 -5.80801,-1.2923 -10.85289,-2.34964 -11.21085,-2.34964 -0.35796,0 -1.43592,-0.81626 -2.39546,-1.81392 L 212,562.12863 V 525.3392 488.54978 l 2.38381,-1.51034 c 2.29323,-1.45296 3.45495,-1.7318 30.57489,-7.33887 15.50511,-3.20568 28.48031,-5.98603 28.83379,-6.17854 0.37111,-0.20212 0.96351,-1.74826 1.4019,-3.6589 2.0467,-8.92032 6.3555,-22.12575 11.08703,-33.97908 4.59382,-11.50833 5.52697,-13.45487 11.98973,-25.01058 3.85451,-6.89205 7.0082,-12.79835 7.0082,-13.12511 0,-0.32675 -0.86236,-2.01693 -1.91635,-3.75594 -1.05399,-1.739 -8.14322,-13.37223 -15.75384,-25.85162 -13.23312,-21.69876 -13.8375,-22.77972 -13.8375,-24.74901 v -2.05922 l 24.56356,-25.00807 c 26.72219,-27.20575 27.70829,-28.07684 30.59517,-27.02669 0.80921,0.29436 12.74089,7.96727 26.51485,17.0509 24.71555,16.29936 25.05855,16.50778 26.18763,15.91199 0.62924,-0.33203 3.86788,-2.41633 7.19699,-4.63178 4.29276,-2.85674 10.0771,-6.04128 19.89137,-10.95113 13.40308,-6.70524 14.22063,-7.04971 25.98694,-10.94937 6.68168,-2.21449 14.48049,-4.54388 17.3307,-5.17643 2.8502,-0.63254 5.3921,-1.31901 5.64867,-1.52547 0.25656,-0.20647 0.58924,-1.18086 0.73929,-2.16532 0.15005,-0.98445 3.28404,-14.6788 6.96443,-30.43189 l 6.69161,-28.64197 1.75751,-1.28791 1.75752,-1.28791 36.00024,0.002 36.00024,0.002 2.05292,1.58662 2.05293,1.58662 0.96665,4.65105 c 1.64781,7.92836 13.03013,55.39517 13.37344,55.77019 0.17858,0.19507 4.33047,1.37985 9.22642,2.63284 18.35782,4.6982 42.35897,15.21972 59.56286,26.11092 4.42824,2.80338 8.2527,5.09385 8.49879,5.08991 0.24605,-0.004 11.98714,-7.65033 26.09131,-16.99199 14.10421,-9.34166 25.99082,-16.98484 26.41477,-16.98484 0.42394,0 1.61734,0.54782 2.65199,1.21737 1.03466,0.66956 12.98088,12.64349 26.54718,26.60873 l 24.666,25.39136 v 1.75987 c 0,1.57686 -1.63815,4.46688 -15.75384,27.79293 -8.66462,14.31818 -15.75335,26.2524 -15.75277,26.52049 5.8e-4,0.26807 0.67771,1.6296 1.50474,3.02563 0.82708,1.39602 4.10122,7.2673 7.27596,13.04729 7.55521,13.7552 14.2935,30.10459 18.42167,44.69728 3.98531,14.0876 4.22539,14.77203 5.27103,15.0254 0.49434,0.11977 13.02512,2.78463 27.84617,5.92189 14.82105,3.13726 27.81147,5.90806 28.86755,6.15732 1.55553,0.36712 2.16574,0.80208 3.21296,2.29008 l 1.29277,1.83687 v 36.16245 36.16247 l -1.50205,1.34573 c -0.82612,0.74014 -1.89883,1.52168 -2.3838,1.73676 -0.68596,0.3042 -45.31636,9.80122 -56.16798,11.95212 -1.59566,0.31628 -2.32382,0.68584 -2.58715,1.3131 -0.20161,0.48011 -1.50346,5.31856 -2.89303,10.7521 -4.50573,17.61839 -13.44164,38.65097 -23.55909,55.45135 -2.86907,4.76417 -4.18625,7.35202 -4.18625,8.22462 0,1.57484 0.22308,1.95903 17.27944,29.76257 l 13.81367,22.51759 v 2.44287 2.44288 l -25.60124,26.12127 -25.60124,26.12128 h -2.00402 c -1.93353,0 -2.77906,-0.51606 -24.0441,-14.67462 -26.51036,-17.65096 -28.2199,-18.74532 -29.2835,-18.74532 -0.4576,0 -4.61181,2.29125 -9.23154,5.09172 -12.07723,7.32108 -22.51731,12.55257 -35.13445,17.60579 -9.4151,3.77078 -12.53616,4.7986 -21.76286,7.16684 -5.92429,1.52061 -10.80286,2.79987 -10.84127,2.84285 -0.0384,0.0431 -3.07695,12.92794 -6.75234,28.63319 -4.7325,20.22236 -7.09528,29.54259 -8.09697,31.93932 l -1.41443,3.38429 -37.85853,0.10787 -37.85853,0.10792 z m 46.24658,-117.31719 c 11.39926,-0.42841 12.64609,-0.559 24.04535,-2.51833 11.88616,-2.04306 12.15589,-2.1124 23.75617,-6.10735 9.55186,-3.2895 13.63726,-4.96138 21.97247,-8.99196 9.46653,-4.57755 11.1147,-5.54982 21.84707,-12.88736 8.49208,-5.80589 13.38867,-9.49739 18.24129,-13.75188 8.23437,-7.21938 10.05991,-9.08016 17.97763,-18.32462 5.01154,-5.85128 7.85097,-9.70879 13.54544,-18.40212 6.47591,-9.88634 7.68253,-12.026 11.92807,-21.15185 7.52055,-16.16562 12.47688,-32.43698 15.59195,-51.1875 0.23196,-1.39603 0.89934,-7.96369 1.48315,-14.59479 l 1.06143,-12.05656 -1.22776,-14.59479 c -1.1179,-13.28835 -1.39923,-15.37106 -3.14298,-23.26704 -2.8048,-12.70059 -3.27908,-14.45184 -6.27376,-23.16585 -8.26679,-24.05499 -21.48315,-45.88875 -39.31679,-64.95219 -10.15779,-10.85828 -18.96163,-18.21678 -32.57495,-27.22708 -9.92367,-6.56821 -9.98626,-6.60412 -19.47248,-11.17096 -18.5912,-8.95015 -37.58768,-14.35903 -58.66235,-16.70294 l -10.36437,-1.15272 -13.88826,0.5073 c -12.70977,0.46424 -14.59184,0.63239 -22.17976,1.98147 -31.15043,5.53836 -57.43168,17.41619 -82.0193,37.06868 -5.93433,4.74322 -9.42366,7.99064 -16.47539,15.33322 -4.92059,5.12353 -9.60627,10.07699 -10.41263,11.00767 -3.454,3.98652 -12.90378,17.84106 -16.15832,23.69009 -5.93359,10.66378 -6.41951,11.62858 -9.26814,18.40211 -4.3994,10.46099 -5.05443,12.28761 -7.63694,21.29659 -5.13753,17.92201 -7.47506,33.94292 -7.4804,51.26903 -0.003,9.02766 0.15977,11.53828 1.44984,22.39263 2.65699,22.35533 7.44648,39.13059 16.55088,57.9697 4.39208,9.08824 6.16123,12.18928 12.57676,22.04514 7.45772,11.45695 7.47503,11.47913 16.17638,20.72883 4.79087,5.09277 9.70931,10.22738 10.92988,11.41029 2.38495,2.31126 9.90033,8.64133 13.62001,11.47192 6.12699,4.66242 18.79786,12.51568 27.55414,17.0778 9.18564,4.78574 10.06481,5.14586 23.024,9.43094 10.48732,3.46768 15.12767,4.77858 20.93603,5.9144 9.88138,1.93226 10.08831,1.96428 18.2413,2.82326 8.80383,0.92755 9.40114,0.93715 24.04534,0.38682 z"
       id="path3" />
  </g>
</svg>
